<svg width="296" height="163" viewBox="0 0 296 163" fill="none" xmlns="http://www.w3.org/2000/svg">
<path d="M95 120C95 104.879 95.816 89.4641 94.0555 74.5C93.2766 67.8793 93 60.4269 93 53.7778C93 51.0636 93.2449 47.5345 92.8414 44.2837M92.8414 44.2837C92.5415 41.8672 91.8833 39.6044 90.5 37.9444C89.1227 36.2916 90.197 32.2719 89.7778 30.2222C89.0569 26.6981 87.8023 22.6678 86.2222 19.4444C84.3723 15.6707 80.8145 11.5262 79.9444 7.61111C79.5459 5.81768 72.9151 2 71 2C66.833 2 62.0178 2.90882 59.9444 7.05556C58.3248 10.2948 54.3271 12.5848 53.2222 16C52.488 18.2694 51.8813 20.5048 50.5 22.5C47.2093 27.2532 46.1195 33.9285 44.7778 39.4444C43.1814 46.0075 41.7378 52.5459 40.4584 59.094M92.8414 44.2837C91.1518 44.5757 89.4638 44.8874 87.7778 45.2222C72.343 48.2873 56.215 51.8622 41.8889 58.4444C41.4129 58.6631 40.936 58.8794 40.4584 59.094M92.8414 44.2837C102.844 42.5549 112.906 41.515 123 40.4444C128.9 39.8187 134.641 38.0963 140.505 37.3512M40.4584 59.094C38.0123 71.6137 36.1665 84.169 35 97C34.2841 104.875 29.8031 112.272 28.9444 120C28.5797 123.282 25.7065 131.523 22.2222 132.778C9.97073 137.188 4.858 124.101 2.77777 115C-0.972852 98.591 5.44677 83.6902 17.1667 72.3889C23.7888 66.0033 32.2135 62.7992 40.4584 59.094ZM140.505 37.3512C142.213 37.1341 143.931 37 145.667 37H157C160.157 37 158.527 35 156 35C150.304 35 145.515 35.5568 140.505 37.3512ZM140.505 37.3512C139.174 37.8277 137.828 38.3916 136.444 39.0556C128.89 42.6818 123.867 45.2148 118.778 52C114.365 57.884 110.214 64.3565 108.5 71.5556C104.133 89.8953 114.827 106.59 133.667 107C137.861 107.091 144.13 108.094 147.444 105C150.001 102.614 151.031 99.8747 152 96.8988M152 96.8988C152.461 95.482 152.909 94.0116 153.5 92.5C155.924 86.3059 155.215 81.822 152.246 76.7721M152 96.8988V90C152 86.1544 152.777 80.9989 152.246 76.7721M152 96.8988V116.944C152 122.018 150.724 129.447 153 134M152.246 76.7721C152.096 76.5163 151.94 76.259 151.778 76C150.559 74.0496 145.293 73.7319 142.204 73.7823M152.246 76.7721C152.144 75.9562 151.993 75.175 151.778 74.4444C150.938 71.588 145.368 73.1589 142.204 73.7823M142.204 73.7823C140.215 73.8148 139.13 74 140.611 74C140.997 74 141.549 73.9115 142.204 73.7823ZM185 79C185 76.2393 186.27 66 182.5 66C174.516 66 167.699 75.5563 166.222 82.7778C164.364 91.8614 166.831 100.334 177.389 96.4444C181.441 94.9515 183.937 88.3721 185.138 82.4724M185.138 82.4724C185.723 79.5979 186 76.8849 186 75C186 72.1907 185.412 77.9719 185.138 82.4724ZM185.138 82.4724C185.054 83.8406 185 85.0904 185 85.9444C185 88.0221 183.638 97.8889 187 97.8889C193.389 97.8889 192.761 82.3082 193 78C193.163 75.0687 193.705 72.0852 193.916 69.0006M193.916 69.0006C193.968 68.2292 194 67.4515 194 66.6667C194 63.4503 193.954 65.1784 193.916 69.0006ZM193.916 69.0006C193.853 75.1254 193.809 86.6273 194 91.7778C194.061 93.4362 195.959 95 197.556 95C202.983 95 203.233 89.8692 204.611 85.8889C205.814 82.4131 207.395 78.8133 207.863 75.0997M207.863 75.0997C207.951 74.4038 208 73.7038 208 73V71C208 72.1361 207.937 73.5371 207.863 75.0997ZM207.863 75.0997C207.525 82.3302 206.979 93.0213 211.556 96.9444C213.439 98.5589 218.096 98.4456 220.222 97.5556C226.568 94.8994 227.553 84.1585 228.778 78.4445C229.002 77.3994 229.199 75.9275 229.288 74.3538M229.288 74.3538C229.437 71.7141 229.283 68.7882 228.444 67.1111C227.435 65.093 220.467 65.2935 220.056 67.5556C219.139 72.5989 223.926 74.0664 229.288 74.3538ZM229.288 74.3538C233.807 74.596 238.734 74 241 74C248.363 74 242.899 95.9041 242.056 101.389C241.392 105.699 238.43 110 234 110M3 161C13.4209 154.237 24.135 150.178 34.9812 146.512C69.865 134.722 105.622 129.705 140.977 126.003C191.928 120.667 243.11 123.77 294 117" stroke="black" stroke-width="3" stroke-linecap="round"/>
</svg>
