<svg version="1.1" id="Layer_1" xmlns="http://www.w3.org/2000/svg" xmlns:xlink="http://www.w3.org/1999/xlink" x="0px" y="0px"
	 width="100%" viewBox="0 0 592 480" enable-background="new 0 0 592 480" xml:space="preserve">
<path fill="#fff" opacity="1.000000" stroke="none" 
	d="
M452.308746,362.238922 
	C424.276489,404.491760 385.988647,431.275146 336.173157,439.595520 
	C279.199738,449.111389 229.535080,432.906006 187.327454,393.625244 
	C183.763870,390.308777 184.136169,387.596100 188.893127,379.689514 
	C193.590317,383.932312 198.136734,388.258148 202.910919,392.315979 
	C236.543167,420.901794 275.612701,433.550171 319.434204,430.487549 
	C351.824493,428.223877 380.876007,416.474030 406.484344,396.333588 
	C409.370667,394.063507 409.818024,392.064056 408.616455,388.701660 
	C386.711365,327.402496 364.920166,266.062683 343.095276,204.734894 
	C332.767822,175.714783 322.399872,146.709030 312.093048,117.681572 
	C308.406464,107.298904 309.397461,109.492004 300.320007,109.866928 
	C265.578400,111.301895 234.482208,122.733711 207.353210,144.370392 
	C175.014771,170.161835 155.150650,203.639969 148.475830,244.484848 
	C141.895630,284.750763 149.947845,322.241455 171.759003,356.738953 
	C172.703125,358.232208 173.383331,360.047699 175.605026,360.971710 
	C178.741348,355.078796 180.463776,348.664246 182.671616,342.478119 
	C207.963837,271.611603 233.163712,200.712128 258.392426,129.822937 
	C260.599365,123.621712 263.499878,121.853798 272.067505,122.243874 
	C232.892929,232.346176 193.838730,342.110138 154.798767,451.834106 
	C156.752304,453.568817 158.841263,452.904266 160.741592,452.910889 
	C178.905853,452.974365 197.070450,452.939453 215.234802,452.986084 
	C220.921036,453.000671 222.828156,455.819824 221.230667,461.277740 
	C220.564255,463.554535 218.876846,463.325562 217.265396,463.335449 
	C209.766571,463.381470 202.267365,463.373016 194.768295,463.373810 
	C165.438538,463.376862 136.108582,463.323395 106.779251,463.436249 
	C102.631783,463.452179 100.238838,462.857635 100.520653,457.785828 
	C100.736229,453.906097 102.351715,452.967133 105.736565,452.985870 
	C114.901413,453.036652 124.068161,453.017303 133.232086,452.883820 
	C142.089432,452.754822 143.870026,451.420898 146.972107,442.758514 
	C154.436630,421.914307 161.776840,401.025177 169.346008,380.219238 
	C170.625793,376.701355 170.239670,374.164185 167.995163,371.106384 
	C149.860199,346.400421 139.030533,318.692230 135.891266,288.261017 
	C128.365479,215.308243 167.258209,145.384720 235.848648,113.722748 
	C244.800079,109.590698 254.076950,106.372604 263.587891,103.898682 
	C266.707855,103.087143 268.436310,101.655907 269.492218,98.661186 
	C278.182617,74.013451 287.097687,49.444111 295.636017,24.744307 
	C297.221832,20.156853 299.470490,18.617115 304.260986,18.719629 
	C317.275055,18.998119 317.382660,18.749598 321.797913,31.134476 
	C339.012421,79.421654 356.139130,127.740128 373.332092,176.035004 
	C383.268494,203.946304 393.352631,231.805527 403.144287,259.767303 
	C404.501526,263.643158 406.416016,264.778137 410.361023,264.744263 
	C431.190277,264.565369 452.021881,264.651764 472.852692,264.668579 
	C479.140533,264.673645 479.381592,264.854523 479.215240,271.113098 
	C478.347778,303.743439 470.061310,334.203156 452.308746,362.238922 
M366.058990,186.306793 
	C351.506561,145.381317 336.961823,104.453094 322.396362,63.532253 
	C318.713104,53.184326 315.030548,42.835110 311.208130,32.538296 
	C309.878326,28.956144 305.973145,27.933996 305.036621,30.773254 
	C302.431549,38.670856 297.115875,45.678600 300.710724,55.352776 
	C314.211212,91.683838 326.941223,128.301468 339.930420,164.822220 
	C365.408539,236.457016 390.860199,308.101257 416.372284,379.723969 
	C417.001312,381.489960 417.156067,383.654083 419.428345,384.982025 
	C422.278320,381.929047 424.981293,378.771576 427.966187,375.907990 
	C431.097839,372.903595 431.534424,370.042023 429.999512,365.762817 
	C408.648102,306.236298 387.528748,246.626541 366.058990,186.306793 
M438.143311,357.838318 
	C438.580139,358.660492 438.650330,359.880219 440.314453,359.606964 
	C450.724030,344.306854 458.229767,327.564545 462.778412,309.490479 
	C464.280579,303.521667 463.966827,303.065369 458.051025,303.034729 
	C447.067108,302.977844 436.082336,302.977417 425.098755,303.061005 
	C423.219177,303.075287 421.042480,302.538269 419.272491,304.930511 
	C425.416809,322.202332 431.645996,339.712738 438.143311,357.838318 
M446.499207,291.645691 
	C449.661102,291.646149 452.823029,291.647064 455.984924,291.646912 
	C466.229645,291.646393 466.150574,291.635681 467.494507,281.604187 
	C467.997070,277.853027 467.115509,276.068085 462.897583,276.106934 
	C446.590271,276.257172 430.280762,276.155365 413.972076,276.177673 
	C412.677917,276.179443 411.290985,275.941650 409.904022,277.119995 
	C410.076813,280.483429 411.930756,283.536743 412.773102,286.855438 
	C413.699615,290.505676 415.688049,291.855042 419.541443,291.731964 
	C428.186249,291.455750 436.845947,291.645142 446.499207,291.645691 
M296.760040,74.631142 
	C295.606293,71.517441 294.452545,68.403748 292.812836,63.978569 
	C288.297607,76.801872 284.310883,88.124336 279.984161,100.412262 
	C288.687469,98.640862 296.464508,99.023750 304.964417,97.996147 
	C302.151001,89.997169 299.578949,82.684448 296.760040,74.631142 
z"/>
<path fill="#fff" opacity="1.000000" stroke="none" 
	d="
M448.999878,463.392639 
	C431.846832,463.387177 415.193848,463.374786 398.540833,463.380981 
	C395.007050,463.382294 391.667603,463.971588 391.583466,458.349396 
	C391.494904,452.428192 395.035339,452.977783 398.769104,452.979584 
	C407.428619,452.983795 416.088287,452.979614 424.747528,452.924011 
	C426.536224,452.912506 428.430267,453.330353 430.092529,452.086517 
	C431.006226,450.168579 429.782684,448.542633 429.210571,446.893982 
	C425.992584,437.620941 422.692566,428.376221 419.392242,419.131927 
	C416.478729,410.971191 416.713684,410.355194 424.721771,406.058685 
	C426.614044,406.974762 426.721924,408.965515 427.318573,410.622131 
	C431.320160,421.732452 435.267426,432.862274 439.254395,443.977875 
	C442.267853,452.379425 442.894440,452.855103 451.837585,452.902832 
	C454.461487,452.916840 457.148956,453.374207 459.710388,452.401733 
	C460.715332,450.577667 459.552673,449.135254 459.024750,447.645325 
	C453.134705,431.022797 447.201538,414.415588 441.306183,397.794952 
	C438.521484,389.944153 438.964203,388.673248 446.139618,383.365814 
	C448.058594,384.223663 448.145996,386.237366 448.726807,387.852997 
	C455.140900,405.696075 461.501068,423.558563 467.866211,441.419189 
	C471.609375,451.922607 472.864075,452.845276 484.141449,452.924774 
	C492.134521,452.981140 500.132446,453.112122 508.119965,452.900085 
	C512.404175,452.786346 513.376587,454.656372 513.454346,458.590698 
	C513.539673,462.911835 511.461945,463.436432 507.951813,463.420380 
	C488.468201,463.331238 468.983917,463.386505 448.999878,463.392639 
z"/>
<path fill="#fff" opacity="1.000000" stroke="none" 
	d="
M342.000000,303.038757 
	C327.504974,303.042572 313.503387,302.799866 299.518066,303.170349 
	C293.847809,303.320526 290.777313,301.804779 289.055389,296.031525 
	C286.026794,285.877411 282.127930,275.982910 278.643738,266.121918 
	C280.962189,264.020477 283.222046,264.704132 285.269806,264.698639 
	C306.262238,264.642303 327.254913,264.664215 348.247498,264.662231 
	C357.804108,264.661346 357.965454,264.801636 359.905762,275.740051 
	C338.300354,275.740051 316.825958,275.740051 294.482574,275.740051 
	C295.612244,281.493103 297.283142,285.912048 299.330078,290.182526 
	C300.336212,292.281677 302.520416,291.620392 304.267181,291.624207 
	C322.260742,291.663422 340.254425,291.648499 358.248077,291.651672 
	C367.096344,291.653259 367.967316,292.469971 369.159302,302.401154 
	C360.297302,303.764648 351.365692,302.707458 342.000000,303.038757 
z"/>
<path fill="#fff" opacity="1.000000" stroke="none" 
	d="
M402.656036,127.286926 
	C433.625610,148.589081 455.726440,176.399185 468.672150,211.380859 
	C470.710480,216.888794 467.398743,220.997375 461.586731,220.193710 
	C458.999939,219.836014 458.836426,217.525696 458.200653,215.755234 
	C450.960907,195.594360 440.016144,177.701218 425.534576,161.937302 
	C409.528625,144.514069 390.838074,130.725845 368.722687,122.314209 
	C360.841583,119.316620 358.317596,114.071518 356.708771,105.879440 
	C373.656494,110.340851 388.343170,117.958778 402.656036,127.286926 
z"/>
</svg>